<svg width="20" height="24" viewBox="0 0 20 24" fill="none" xmlns="http://www.w3.org/2000/svg">
<path d="M16.7643 12.9371C16.7643 14.2032 17.1355 15.0942 17.878 15.61C18.6205 16.1258 18.9995 16.3837 19.0152 16.3837L19.9061 16.7354L19.6013 17.6499C19.5857 17.6811 19.4528 18.0055 19.2027 18.6229C18.9526 19.2403 18.6087 19.9164 18.1711 20.651C17.5146 21.7608 16.8307 22.5932 16.1195 23.1481C15.4083 23.703 14.6697 23.9805 13.9038 23.9805C13.513 23.9805 13.1457 23.9297 12.8018 23.8281C12.4579 23.7265 12.1375 23.6209 11.8405 23.5115C11.5748 23.4021 11.3247 23.3122 11.0902 23.2419C10.8557 23.1715 10.6134 23.1364 10.3633 23.1364C10.082 23.1364 9.7889 23.1833 9.48409 23.2771C9.17928 23.3708 8.87057 23.4724 8.55795 23.5819C8.26096 23.6913 7.96787 23.789 7.6787 23.8749C7.38952 23.9609 7.10425 24.0039 6.82289 24.0039C6.05697 24.0039 5.27151 23.6796 4.46651 23.0309C3.6615 22.3822 2.91512 21.4639 2.22735 20.2759C1.8991 19.7444 1.61774 19.1817 1.38327 18.5877C1.13317 17.9937 0.918245 17.3959 0.738487 16.7941C0.55873 16.1923 0.429773 15.6022 0.351617 15.0238C0.257831 14.4299 0.210938 13.8515 0.210938 13.2888C0.210938 12.0852 0.390695 11.0145 0.750211 10.0766C1.10973 9.13872 1.57866 8.35326 2.15701 7.7202C2.73536 7.08714 3.39187 6.6143 4.12653 6.30168C4.86119 5.97342 5.60367 5.8093 6.35396 5.8093C6.91668 5.8093 7.43251 5.87964 7.90144 6.02032C8.37037 6.161 8.79241 6.30949 9.16756 6.46581C9.3395 6.52833 9.51145 6.59085 9.68339 6.65338C9.85533 6.7159 9.98819 6.74717 10.082 6.74717C10.1445 6.74717 10.25 6.7159 10.3985 6.65338C10.547 6.59085 10.6916 6.53615 10.8323 6.48925C11.2074 6.33294 11.6529 6.16881 12.1687 5.99687C12.6846 5.82493 13.2629 5.73896 13.9038 5.73896C15.6701 5.73896 16.9479 6.16881 17.7373 7.02853C18.5267 7.88824 18.9292 8.34935 18.9448 8.41188L19.4606 9.3263L18.5462 9.77178C17.9991 10.1 17.5654 10.5377 17.2449 11.0848C16.9245 11.6319 16.7643 12.2415 16.7643 12.9136C16.7643 12.9136 16.7643 12.9175 16.7643 12.9254C16.7643 12.9332 16.7643 12.9371 16.7643 12.9371ZM13.9038 7.73193C13.4661 7.73193 13.0519 7.79445 12.6611 7.9195C12.2703 8.04455 11.903 8.17741 11.5591 8.31809C11.2934 8.42751 11.0394 8.5252 10.7971 8.61117C10.5548 8.69715 10.3164 8.74013 10.082 8.74013C9.81625 8.74013 9.54661 8.69715 9.27307 8.61117C8.99953 8.5252 8.72207 8.42751 8.44071 8.31809C8.12809 8.19304 7.79593 8.07581 7.44423 7.96639C7.09253 7.85697 6.72911 7.80227 6.35396 7.80227C5.83814 7.80227 5.34185 7.91559 4.8651 8.14224C4.38835 8.36889 3.95459 8.69324 3.56381 9.11528C3.25119 9.47479 2.94247 9.99062 2.63767 10.6628C2.33286 11.3349 2.18046 12.2102 2.18046 13.2888C2.18046 14.2266 2.33677 15.2231 2.64939 16.2782C2.96201 17.3333 3.39187 18.3376 3.93896 19.2911C4.48604 20.229 5.02141 20.9207 5.54505 21.3662C6.06869 21.8116 6.49464 22.0344 6.82289 22.0344C6.93231 22.0344 7.08862 21.9992 7.29183 21.9289C7.49503 21.8585 7.69042 21.7921 7.87799 21.7296C8.23751 21.6045 8.62829 21.4756 9.05033 21.3427C9.47237 21.2098 9.91004 21.1434 10.3633 21.1434C10.7854 21.1434 11.1762 21.1981 11.5357 21.3075C11.8952 21.417 12.2313 21.5264 12.5439 21.6358C12.794 21.7296 13.0284 21.8116 13.2473 21.882C13.4661 21.9523 13.6849 21.9875 13.9038 21.9875C14.2789 21.9875 14.6853 21.7843 15.123 21.3779C15.5607 20.9715 15.9984 20.4009 16.436 19.6663C16.6392 19.3224 16.8229 18.9824 16.987 18.6463C17.1511 18.3103 17.2879 18.0172 17.3973 17.7671C16.8815 17.4232 16.3149 16.8644 15.6975 16.0907C15.08 15.3169 14.7713 14.2657 14.7713 12.9371C14.7713 11.8742 14.9823 10.9988 15.4044 10.3111C15.8264 9.62329 16.2406 9.09183 16.647 8.71669C16.3969 8.48222 16.0452 8.25947 15.5919 8.04846C15.1386 7.83743 14.5759 7.73193 13.9038 7.73193ZM9.89441 4.94177C9.89441 4.94177 9.89441 4.63697 9.89441 4.02735C9.89441 3.41774 10.207 2.69871 10.8323 1.87026C11.5357 0.948025 12.2703 0.404844 13.0363 0.240717C13.8022 0.0765915 14.1851 -0.00547218 14.1851 -0.00547218C14.1851 -0.00547218 14.1773 0.35795 14.1617 1.0848C14.1461 1.81164 13.7866 2.58929 13.0832 3.41774C12.3329 4.32434 11.6138 4.805 10.9261 4.85971C10.2383 4.91442 9.89441 4.94177 9.89441 4.94177Z" fill="white"/>
</svg>
