<svg width="21" height="24" viewBox="0 0 21 24" fill="none" xmlns="http://www.w3.org/2000/svg">
<path d="M19.4531 10.3359L2.4375 0.585938C2.75 0.757812 2.79688 0.765625 2.57812 0.609375C2.35938 0.4375 2.05859 0.304688 1.67578 0.210938C1.29297 0.117188 0.921875 0.164062 0.5625 0.351562C0.1875 0.554688 0 1.10156 0 1.99219V22.0078C0 22.9141 0.1875 23.4609 0.5625 23.6484C0.9375 23.8359 1.31641 23.8828 1.69922 23.7891C2.08203 23.6953 2.38281 23.5625 2.60156 23.3906C2.82031 23.2188 2.76562 23.2266 2.4375 23.4141L19.4531 13.6641C20.0938 13.2891 20.4141 12.7305 20.4141 11.9883C20.4141 11.2461 20.0938 10.6953 19.4531 10.3359ZM9 12L7.00781 6L11.9062 8.67188L9 12ZM7.40625 18.1406L13.7344 9.82031L17.9062 11.9531L7.40625 18.1406Z" fill="#1163C7"/>
</svg>
