<svg width="16" height="16" viewBox="0 0 16 16" fill="none" xmlns="http://www.w3.org/2000/svg">
<path d="M15.9583 6.3254C15.9071 6.16684 15.8104 6.02685 15.6802 5.92288C15.5501 5.81891 15.3922 5.75554 15.2262 5.74069L10.6082 5.32134L8.78209 1.04717C8.6474 0.733943 8.34077 0.53125 8.00007 0.53125C7.65937 0.53125 7.35271 0.733974 7.21808 1.04795L5.39197 5.32137L0.7732 5.74069C0.607451 5.75588 0.449802 5.81937 0.3198 5.92331C0.189799 6.02725 0.0931609 6.16705 0.0418688 6.3254C-0.0634776 6.6494 0.0338061 7.00476 0.290531 7.22876L3.78125 10.2901L2.75191 14.8243C2.67659 15.1577 2.80597 15.5023 3.0826 15.7022C3.23126 15.8097 3.40524 15.8644 3.58065 15.8644C3.7319 15.8644 3.8819 15.8236 4.01659 15.743L8.00007 13.3622L11.9821 15.743C12.2735 15.9183 12.6408 15.9023 12.9168 15.7022C13.0519 15.6044 13.1553 15.4691 13.2141 15.313C13.2729 15.1569 13.2845 14.9869 13.2475 14.8243L12.2182 10.2901L15.7089 7.22939C15.8345 7.11972 15.925 6.97557 15.9694 6.81485C16.0137 6.65414 16.0099 6.48394 15.9583 6.3254Z" fill="#1163C7"/>
</svg>
