<svg width="27" height="26" viewBox="0 0 27 26" fill="none" xmlns="http://www.w3.org/2000/svg">
<rect x="0.808594" width="25.6747" height="25.6747" rx="12.8373" fill="black" fill-opacity="0.5"/>
<path d="M16.32 18.3385C15.8697 18.3385 15.4869 18.1809 15.1717 17.8656C14.8564 17.5504 14.6988 17.1676 14.6988 16.7173C14.6988 16.6632 14.7123 16.5371 14.7393 16.339L10.9429 14.1233C10.7988 14.2584 10.6322 14.3643 10.4431 14.4411C10.2539 14.5178 10.0513 14.556 9.8351 14.5556C9.38476 14.5556 9.00197 14.398 8.68673 14.0828C8.37149 13.7675 8.21387 13.3847 8.21387 12.9344C8.21387 12.484 8.37149 12.1013 8.68673 11.786C9.00197 11.4708 9.38476 11.3132 9.8351 11.3132C10.0513 11.3132 10.2539 11.3515 10.4431 11.4283C10.6322 11.505 10.7988 11.6107 10.9429 11.7455L14.7393 9.5298C14.7213 9.46675 14.7102 9.40604 14.7058 9.34768C14.7015 9.28931 14.6992 9.22392 14.6988 9.15151C14.6988 8.70116 14.8564 8.31837 15.1717 8.00313C15.4869 7.68789 15.8697 7.53027 16.32 7.53027C16.7704 7.53027 17.1532 7.68789 17.4684 8.00313C17.7836 8.31837 17.9413 8.70116 17.9413 9.15151C17.9413 9.60185 17.7836 9.98464 17.4684 10.2999C17.1532 10.6151 16.7704 10.7727 16.32 10.7727C16.1039 10.7727 15.9012 10.7344 15.7121 10.6576C15.5229 10.5809 15.3563 10.4752 15.2122 10.3404L11.4158 12.5561C11.4338 12.6191 11.4452 12.68 11.4498 12.7388C11.4545 12.7975 11.4567 12.8627 11.4563 12.9344C11.456 13.0061 11.4538 13.0715 11.4498 13.1306C11.4459 13.1896 11.4345 13.2503 11.4158 13.3127L15.2122 15.5284C15.3563 15.3933 15.5229 15.2875 15.7121 15.2111C15.9012 15.1348 16.1039 15.0964 16.32 15.096C16.7704 15.096 17.1532 15.2537 17.4684 15.5689C17.7836 15.8841 17.9413 16.2669 17.9413 16.7173C17.9413 17.1676 17.7836 17.5504 17.4684 17.8656C17.1532 18.1809 16.7704 18.3385 16.32 18.3385Z" fill="white"/>
</svg>
