<svg width="51" height="50" viewBox="0 0 51 50" fill="none" xmlns="http://www.w3.org/2000/svg">
<rect x="1" y="0.5" width="49" height="49" rx="24.5" fill="#1163C7"/>
<rect x="1" y="0.5" width="49" height="49" rx="24.5" stroke="white"/>
<path d="M33.2871 24.5055L28.1961 19.693C28.0589 19.5678 27.8752 19.4985 27.6845 19.5C27.4938 19.5016 27.3114 19.5739 27.1766 19.7014C27.0417 19.8288 26.9653 20.0013 26.9636 20.1815C26.9619 20.3618 27.0353 20.5355 27.1677 20.6651L31.0172 24.3041H18.2273C18.0344 24.3041 17.8494 24.3765 17.713 24.5054C17.5766 24.6343 17.5 24.8092 17.5 24.9916C17.5 25.1739 17.5766 25.3488 17.713 25.4777C17.8494 25.6066 18.0344 25.6791 18.2273 25.6791H31.0172L27.1677 29.318C27.0983 29.3814 27.0429 29.4573 27.0047 29.5411C26.9666 29.625 26.9466 29.7152 26.9457 29.8065C26.9449 29.8978 26.9633 29.9883 26.9999 30.0728C27.0364 30.1573 27.0904 30.2341 27.1587 30.2986C27.227 30.3632 27.3082 30.4142 27.3976 30.4488C27.487 30.4834 27.5827 30.5008 27.6793 30.5C27.7759 30.4992 27.8713 30.4802 27.96 30.4442C28.0488 30.4082 28.129 30.3558 28.1961 30.2901L33.2871 25.4776C33.4234 25.3487 33.5 25.1739 33.5 24.9916C33.5 24.8093 33.4234 24.6344 33.2871 24.5055Z" fill="white"/>
</svg>
