<svg width="14" height="15" viewBox="0 0 14 15" fill="none" xmlns="http://www.w3.org/2000/svg">
<g clip-path="url(#clip0_7342_11880)">
<path d="M12.3594 1.59375H11.7031V0.5H10.6094V1.59375H3.39062V0.5H2.29688V1.59375H1.64062C0.735984 1.59375 0 2.32973 0 3.23438V12.8594C0 13.764 0.735984 14.5 1.64062 14.5H12.3594C13.264 14.5 14 13.764 14 12.8594V3.23438C14 2.32973 13.264 1.59375 12.3594 1.59375ZM12.9062 12.8594C12.9062 13.1609 12.6609 13.4062 12.3594 13.4062H1.64062C1.33908 13.4062 1.09375 13.1609 1.09375 12.8594V5.64062H12.9062V12.8594ZM12.9062 4.54688H1.09375V3.23438C1.09375 2.93283 1.33908 2.6875 1.64062 2.6875H2.29688V3.78125H3.39062V2.6875H10.6094V3.78125H11.7031V2.6875H12.3594C12.6609 2.6875 12.9062 2.93283 12.9062 3.23438V4.54688Z" fill="#1163C7"/>
<path d="M3.17188 6.78711H2.07812V7.88086H3.17188V6.78711Z" fill="#1163C7"/>
<path d="M5.35547 6.78711H4.26172V7.88086H5.35547V6.78711Z" fill="#1163C7"/>
<path d="M7.54688 6.78711H6.45312V7.88086H7.54688V6.78711Z" fill="#1163C7"/>
<path d="M9.73438 6.78711H8.64062V7.88086H9.73438V6.78711Z" fill="#1163C7"/>
<path d="M11.9219 6.78711H10.8281V7.88086H11.9219V6.78711Z" fill="#1163C7"/>
<path d="M3.17188 8.97656H2.07812V10.0703H3.17188V8.97656Z" fill="#1163C7"/>
<path d="M5.35547 8.97656H4.26172V10.0703H5.35547V8.97656Z" fill="#1163C7"/>
<path d="M7.54688 8.97656H6.45312V10.0703H7.54688V8.97656Z" fill="#1163C7"/>
<path d="M9.73438 8.97656H8.64062V10.0703H9.73438V8.97656Z" fill="#1163C7"/>
<path d="M3.17188 11.1621H2.07812V12.2559H3.17188V11.1621Z" fill="#1163C7"/>
<path d="M5.35547 11.1621H4.26172V12.2559H5.35547V11.1621Z" fill="#1163C7"/>
<path d="M7.54688 11.1621H6.45312V12.2559H7.54688V11.1621Z" fill="#1163C7"/>
<path d="M9.73438 11.1621H8.64062V12.2559H9.73438V11.1621Z" fill="#1163C7"/>
<path d="M11.9219 8.97656H10.8281V10.0703H11.9219V8.97656Z" fill="#1163C7"/>
</g>
<defs>
<clipPath id="clip0_7342_11880">
<rect width="14" height="14" fill="white" transform="translate(0 0.5)"/>
</clipPath>
</defs>
</svg>
