<svg width="14" height="15" viewBox="0 0 14 15" fill="none" xmlns="http://www.w3.org/2000/svg">
<g clip-path="url(#clip0_7342_11929)">
<path d="M6.65872 14.3173C6.73479 14.4314 6.86287 14.5 7 14.5C7.13713 14.5 7.26521 14.4315 7.34128 14.3173C8.31195 12.8614 9.74168 11.0632 10.738 9.23444C11.5346 7.77221 11.9219 6.52509 11.9219 5.42188C11.9219 2.70795 9.71392 0.5 7 0.5C4.28608 0.5 2.07812 2.70795 2.07812 5.42188C2.07812 6.52509 2.46539 7.77221 3.26203 9.23444C4.25759 11.0618 5.69004 12.8644 6.65872 14.3173ZM7 1.32031C9.2616 1.32031 11.1016 3.16027 11.1016 5.42188C11.1016 6.38448 10.747 7.50323 10.0176 8.842C9.15884 10.4183 7.93335 12.0174 7 13.3617C6.06679 12.0176 4.84121 10.4184 3.98237 8.842C3.253 7.50323 2.89844 6.38448 2.89844 5.42188C2.89844 3.16027 4.7384 1.32031 7 1.32031Z" fill="#1163C7"/>
<path d="M7 7.88281C8.35696 7.88281 9.46094 6.77884 9.46094 5.42188C9.46094 4.06491 8.35696 2.96094 7 2.96094C5.64304 2.96094 4.53906 4.06491 4.53906 5.42188C4.53906 6.77884 5.64304 7.88281 7 7.88281ZM7 3.78125C7.90464 3.78125 8.64062 4.51723 8.64062 5.42188C8.64062 6.32652 7.90464 7.0625 7 7.0625C6.09536 7.0625 5.35938 6.32652 5.35938 5.42188C5.35938 4.51723 6.09536 3.78125 7 3.78125Z" fill="#1163C7"/>
</g>
<defs>
<clipPath id="clip0_7342_11929">
<rect width="14" height="14" fill="white" transform="translate(0 0.5)"/>
</clipPath>
</defs>
</svg>
