<svg width="24" height="24" viewBox="0 0 24 24" fill="none" xmlns="http://www.w3.org/2000/svg">
<g clip-path="url(#clip0_4186_81573)">
<path d="M21.4681 4.26427C22.8043 2.69163 21.6409 0.183189 19.5579 0.20127C17.4751 0.183144 16.3114 2.69203 17.6477 4.26427C16.2395 4.96799 15.2701 6.42395 15.2701 8.10233V9.31942C14.9656 9.03242 14.6197 8.78896 14.2418 8.6001C15.5779 7.02746 14.4145 4.51902 12.3315 4.5371C10.2488 4.51897 9.08501 7.02786 10.4214 8.6001C9.01318 9.30382 8.04374 10.7598 8.04374 12.4382V13.6553C7.73929 13.3683 7.39336 13.1248 7.01542 12.9359C8.35156 11.3633 7.18818 8.85485 5.10518 8.87293C3.0224 8.85481 1.85866 11.3637 3.19503 12.9359C1.78683 13.6396 0.817383 15.0956 0.817383 16.774V17.4966C0.817383 18.4298 1.42341 19.2241 2.26264 19.5065V22.5551C2.26264 22.9277 2.56471 23.2298 2.93731 23.2298H7.27314C7.64573 23.2298 7.9478 22.9277 7.9478 22.5551V19.5065C8.85743 19.2097 9.46408 18.2937 9.39306 17.3034C9.42473 17.3158 9.45662 17.3278 9.489 17.3386V22.5551C9.489 22.9277 9.79107 23.2298 10.1637 23.2298H14.4995C14.8721 23.2298 15.1742 22.9277 15.1742 22.5551V17.3386C16.0835 17.0418 16.6902 16.1264 16.6194 15.1364C16.6511 15.1488 16.683 15.1607 16.7154 15.1716V22.5551C16.7154 22.9277 17.0174 23.2298 17.39 23.2298H21.7258C22.0984 23.2298 22.4005 22.9277 22.4005 22.5551V15.1716C23.2397 14.8892 23.8458 14.0949 23.8458 13.1617V8.10233C23.8458 6.42395 22.8764 4.96799 21.4681 4.26427ZM5.10518 10.2223C5.72933 10.2223 6.23713 10.7301 6.23713 11.3542C6.18023 12.8538 4.02995 12.8534 3.97327 11.3542C3.97327 10.7301 4.48103 10.2223 5.10518 10.2223ZM8.04374 17.4966C8.04374 17.9215 7.69804 18.2672 7.27314 18.2672C6.90055 18.2672 6.59848 18.5693 6.59848 18.9419V21.8804H3.61197V18.9419C3.61197 18.5693 3.3099 18.2672 2.93731 18.2672C2.5124 18.2672 2.16671 17.9215 2.16671 17.4966V16.774C2.16671 15.1537 3.48495 13.8355 5.10522 13.8355C6.72549 13.8355 8.04374 15.1537 8.04374 16.774V17.4966ZM12.3316 5.88643C12.9557 5.88643 13.4635 6.39422 13.4635 7.01837C13.4066 8.51797 11.2563 8.51756 11.1997 7.01837C11.1996 6.39422 11.7074 5.88643 12.3316 5.88643ZM15.2701 15.3287C15.2701 15.7536 14.9244 16.0993 14.4995 16.0993C14.1269 16.0993 13.8248 16.4014 13.8248 16.774V21.8804H10.8383V16.774C10.8383 16.4014 10.5363 16.0993 10.1637 16.0993C9.73876 16.0993 9.39306 15.7536 9.39306 15.3287V12.4381C9.54009 8.54631 15.1227 8.54509 15.2701 12.4382C15.2701 12.4382 15.2701 15.3287 15.2701 15.3287ZM19.5579 1.55059C20.1821 1.55059 20.6899 2.05839 20.6899 2.68254C20.633 4.18214 18.4827 4.18173 18.426 2.68254C18.426 2.05839 18.9338 1.55059 19.5579 1.55059ZM22.4965 13.1617C22.4965 13.5866 22.1508 13.9323 21.7259 13.9323C21.3533 13.9323 21.0512 14.2343 21.0512 14.6069V21.8804H18.0647V14.6069C18.0647 14.2343 17.7627 13.9323 17.3901 13.9323C16.9652 13.9323 16.6195 13.5866 16.6195 13.1617V8.10233C16.7661 4.21128 22.3488 4.20863 22.4965 8.10238C22.4965 8.10233 22.4965 13.1617 22.4965 13.1617Z" fill="#1163C7"/>
</g>
<defs>
<clipPath id="clip0_4186_81573">
<rect width="23.0286" height="23.0286" fill="white" transform="translate(0.817139 0.201172)"/>
</clipPath>
</defs>
</svg>
