<svg width="13" height="13" viewBox="0 0 13 13" fill="none" xmlns="http://www.w3.org/2000/svg">
<g clip-path="url(#clip0_4175_16546)">
<path d="M11.5358 1.14888H10.9742V0.212891H10.0382V1.14888H3.86066V0.212891H2.92466V1.14888H2.36307C1.58891 1.14888 0.959076 1.77872 0.959076 2.55288V10.7896C0.959076 11.5638 1.58891 12.1936 2.36307 12.1936H11.5358C12.31 12.1936 12.9398 11.5638 12.9398 10.7896V2.55288C12.9398 1.77872 12.31 1.14888 11.5358 1.14888ZM12.0038 10.7896C12.0038 11.0477 11.7939 11.2576 11.5358 11.2576H2.36307C2.10501 11.2576 1.89507 11.0477 1.89507 10.7896V4.61206H12.0038V10.7896ZM12.0038 3.67607H1.89507V2.55288C1.89507 2.29482 2.10501 2.08488 2.36307 2.08488H2.92466V3.02087H3.86066V2.08488H10.0382V3.02087H10.9742V2.08488H11.5358C11.7939 2.08488 12.0038 2.29482 12.0038 2.55288V3.67607Z" fill="#1163C7"/>
<path d="M3.67339 5.59375H2.7374V6.52974H3.67339V5.59375Z" fill="#1163C7"/>
<path d="M5.54546 5.59375H4.60947V6.52974H5.54546V5.59375Z" fill="#1163C7"/>
<path d="M7.41753 5.59375H6.48154V6.52974H7.41753V5.59375Z" fill="#1163C7"/>
<path d="M9.28862 5.59375H8.35263V6.52974H9.28862V5.59375Z" fill="#1163C7"/>
<path d="M11.1607 5.59375H10.2247V6.52974H11.1607V5.59375Z" fill="#1163C7"/>
<path d="M3.67339 7.4668H2.7374V8.40279H3.67339V7.4668Z" fill="#1163C7"/>
<path d="M5.54546 7.4668H4.60947V8.40279H5.54546V7.4668Z" fill="#1163C7"/>
<path d="M7.41753 7.4668H6.48154V8.40279H7.41753V7.4668Z" fill="#1163C7"/>
<path d="M9.28862 7.4668H8.35263V8.40279H9.28862V7.4668Z" fill="#1163C7"/>
<path d="M3.67339 9.33789H2.7374V10.2739H3.67339V9.33789Z" fill="#1163C7"/>
<path d="M5.54546 9.33789H4.60947V10.2739H5.54546V9.33789Z" fill="#1163C7"/>
<path d="M7.41753 9.33789H6.48154V10.2739H7.41753V9.33789Z" fill="#1163C7"/>
<path d="M9.28862 9.33789H8.35263V10.2739H9.28862V9.33789Z" fill="#1163C7"/>
<path d="M11.1607 7.4668H10.2247V8.40279H11.1607V7.4668Z" fill="#1163C7"/>
</g>
<defs>
<clipPath id="clip0_4175_16546">
<rect width="11.9807" height="11.9807" fill="white" transform="translate(0.959076 0.212891)"/>
</clipPath>
</defs>
</svg>
