<svg width="24" height="24" viewBox="0 0 24 24" fill="none" xmlns="http://www.w3.org/2000/svg">
<g clip-path="url(#clip0_4186_81555)">
<path d="M18.1803 10.9163C18.6771 10.9163 19.0799 10.5136 19.0799 10.0167C19.0799 9.51993 18.6771 9.11719 18.1803 9.11719C17.6835 9.11719 17.2808 9.51993 17.2808 10.0167C17.2808 10.5136 17.6835 10.9163 18.1803 10.9163Z" fill="#1163C7"/>
<path d="M20.2485 2.36942H19.0791V1.46987C19.0791 0.973043 18.6763 0.570312 18.1795 0.570312C17.6827 0.570312 17.2799 0.973043 17.2799 1.46987V2.36942H13.187V1.46987C13.187 0.973043 12.7842 0.570312 12.2874 0.570312C11.7906 0.570312 11.3879 0.973043 11.3879 1.46987V2.36942H7.33988V1.46987C7.33988 0.973043 6.93715 0.570312 6.44033 0.570312C5.9435 0.570312 5.54077 0.973043 5.54077 1.46987V2.36942H4.41633C2.43227 2.36942 0.818115 3.98358 0.818115 5.96763V20.0007C0.818115 21.9847 2.43227 23.5989 4.41633 23.5989H11.2979C11.7947 23.5989 12.1975 23.1962 12.1975 22.6993C12.1975 22.2025 11.7947 21.7998 11.2979 21.7998H4.41633C3.4243 21.7998 2.61722 20.9927 2.61722 20.0007V5.96763C2.61722 4.97561 3.4243 4.16853 4.41633 4.16853H5.54077V5.06808C5.54077 5.5649 5.9435 5.96763 6.44033 5.96763C6.93715 5.96763 7.33988 5.5649 7.33988 5.06808V4.16853H11.3879V5.06808C11.3879 5.5649 11.7906 5.96763 12.2874 5.96763C12.7842 5.96763 13.187 5.5649 13.187 5.06808V4.16853H17.2799V5.06808C17.2799 5.5649 17.6827 5.96763 18.1795 5.96763C18.6763 5.96763 19.0791 5.5649 19.0791 5.06808V4.16853H20.2485C21.2405 4.16853 22.0476 4.97561 22.0476 5.96763V11.0951C22.0476 11.5919 22.4503 11.9946 22.9471 11.9946C23.444 11.9946 23.8467 11.5919 23.8467 11.0951V5.96763C23.8467 3.98358 22.2325 2.36942 20.2485 2.36942Z" fill="#1163C7"/>
<path d="M18.4046 12.7148C15.4037 12.7148 12.9623 15.1562 12.9623 18.1571C12.9623 21.1581 15.4037 23.5994 18.4046 23.5994C21.4055 23.5994 23.8469 21.1581 23.8469 18.1571C23.8469 15.1562 21.4055 12.7148 18.4046 12.7148ZM18.4046 21.8003C16.3957 21.8003 14.7614 20.166 14.7614 18.1571C14.7614 16.1483 16.3957 14.514 18.4046 14.514C20.4134 14.514 22.0478 16.1483 22.0478 18.1571C22.0478 20.166 20.4134 21.8003 18.4046 21.8003Z" fill="#1163C7"/>
<path d="M19.7093 17.2581H19.3045V16.3136C19.3045 15.8168 18.9017 15.4141 18.4049 15.4141C17.9081 15.4141 17.5054 15.8168 17.5054 16.3136V18.1577C17.5054 18.6545 17.9081 19.0573 18.4049 19.0573H19.7093C20.2061 19.0573 20.6088 18.6545 20.6088 18.1577C20.6088 17.6609 20.2061 17.2581 19.7093 17.2581Z" fill="#1163C7"/>
<path d="M14.2663 10.9163C14.7631 10.9163 15.1658 10.5136 15.1658 10.0167C15.1658 9.51993 14.7631 9.11719 14.2663 9.11719C13.7694 9.11719 13.3667 9.51993 13.3667 10.0167C13.3667 10.5136 13.7694 10.9163 14.2663 10.9163Z" fill="#1163C7"/>
<path d="M10.3541 14.8304C10.851 14.8304 11.2537 14.4276 11.2537 13.9308C11.2537 13.434 10.851 13.0312 10.3541 13.0312C9.85733 13.0312 9.45459 13.434 9.45459 13.9308C9.45459 14.4276 9.85733 14.8304 10.3541 14.8304Z" fill="#1163C7"/>
<path d="M6.44008 10.9163C6.93689 10.9163 7.33963 10.5136 7.33963 10.0167C7.33963 9.51993 6.93689 9.11719 6.44008 9.11719C5.94327 9.11719 5.54053 9.51993 5.54053 10.0167C5.54053 10.5136 5.94327 10.9163 6.44008 10.9163Z" fill="#1163C7"/>
<path d="M6.44008 14.8304C6.93689 14.8304 7.33963 14.4276 7.33963 13.9308C7.33963 13.434 6.93689 13.0312 6.44008 13.0312C5.94327 13.0312 5.54053 13.434 5.54053 13.9308C5.54053 14.4276 5.94327 14.8304 6.44008 14.8304Z" fill="#1163C7"/>
<path d="M6.44008 18.7405C6.93689 18.7405 7.33963 18.3378 7.33963 17.841C7.33963 17.3442 6.93689 16.9414 6.44008 16.9414C5.94327 16.9414 5.54053 17.3442 5.54053 17.841C5.54053 18.3378 5.94327 18.7405 6.44008 18.7405Z" fill="#1163C7"/>
<path d="M10.3541 18.7405C10.851 18.7405 11.2537 18.3378 11.2537 17.841C11.2537 17.3442 10.851 16.9414 10.3541 16.9414C9.85733 16.9414 9.45459 17.3442 9.45459 17.841C9.45459 18.3378 9.85733 18.7405 10.3541 18.7405Z" fill="#1163C7"/>
<path d="M10.3541 10.9163C10.851 10.9163 11.2537 10.5136 11.2537 10.0167C11.2537 9.51993 10.851 9.11719 10.3541 9.11719C9.85733 9.11719 9.45459 9.51993 9.45459 10.0167C9.45459 10.5136 9.85733 10.9163 10.3541 10.9163Z" fill="#1163C7"/>
</g>
<defs>
<clipPath id="clip0_4186_81555">
<rect width="23.0286" height="23.0286" fill="white" transform="translate(0.817139 0.570312)"/>
</clipPath>
</defs>
</svg>
