<svg width="217" height="195" viewBox="0 0 217 195" fill="none" xmlns="http://www.w3.org/2000/svg">
<path d="M199.904 102.435C199.904 150.901 160.614 190.192 112.147 190.192C63.6797 190.192 23.9847 150.9 24.3893 102.435C24.8004 53.2015 65.4836 11.314 112.147 14.6778C160.489 18.1627 199.904 53.968 199.904 102.435Z" fill="#EAF0E4"/>
<path d="M119.16 177.793C119.16 177.793 114.652 168.851 115.603 153.216C117.051 129.416 128.634 108.504 134.927 108.956C144.044 109.613 147.967 148.419 148.233 151.305C148.498 154.192 146.934 167.293 146.934 167.293C146.934 167.293 139.288 172.43 136.821 173.582C134.353 174.735 119.16 177.793 119.16 177.793Z" fill="black"/>
<path d="M65.0309 100.283L56.8318 115.387C56.0136 119.965 55.6483 125.256 55.7655 130.607C53.0232 131.194 50.8849 131.476 50.0653 131.208C44.3631 129.335 39.9467 113.476 46.2148 108.989C51.1104 105.481 65.0309 100.283 65.0309 100.283Z" fill="#FBA986"/>
<path d="M139.514 174.263C139.514 174.263 75.8788 169.263 64.9397 160.602C58.9537 155.864 56.0405 143.083 55.7645 130.607C55.6474 125.256 56.0127 119.965 56.8309 115.387C56.8309 115.387 57.7518 105.718 59.9473 103.606C70.1487 93.7929 106.5 93.203 115.994 95.5559C121.989 97.0411 134.06 115.335 134.06 115.335L150.263 118.572C161.596 138.763 157.649 157.286 139.514 174.263Z" fill="#FBA986"/>
<path d="M77.8107 100.934C79.4065 110.788 83.8771 119.456 92.0858 125.993C99.8953 132.211 106.734 139.846 116.472 142.043C113.084 143.035 109.49 141.946 106.024 141.279C102.557 140.612 98.5249 140.532 95.9995 142.999C93.3997 145.538 93.4776 149.791 94.6234 153.24C95.497 155.869 96.8804 158.352 97.3059 161.09C97.7314 163.829 96.8752 167.059 94.3892 168.283C92.1017 169.41 89.3781 168.472 87.0292 167.481C81.2672 165.048 75.6291 162.322 70.1441 159.316C66.7264 157.444 63.1271 155.186 61.7759 151.53C60.6074 148.369 61.3974 144.822 62.627 141.684C63.8566 138.546 65.524 135.542 66.1634 132.233C66.8028 128.925 66.1693 125.083 63.5256 122.993C61.6481 121.509 58.7546 120.773 58.2399 118.436C57.8855 116.826 58.9751 115.195 60.3678 114.314C61.7605 113.432 63.4185 113.104 64.9953 112.624C69.2928 111.317 76.1104 110.545 79.0313 107.132" fill="#EF9672"/>
<path d="M119.744 177.867L138.989 183.084L139.413 183.197L181.118 193.31C181.118 193.31 212.262 147.636 194.383 119.568C194.235 119.196 194.078 118.822 193.92 118.448C192.074 118.143 158.873 113.33 154.825 112.544C144.197 110.483 136.012 108.932 135.647 108.861C135.661 108.873 135.674 108.885 135.688 108.896C144.536 116.621 151.293 157.902 119.744 177.867Z" fill="#172A39"/>
<path d="M141.354 183.668L119.742 177.869C151.292 157.903 144.536 116.622 135.686 108.895C137.665 109.277 149.459 111.394 158.729 113.191C163.289 123.492 171.405 163.55 141.354 183.668Z" fill="#1163C7"/>
<path d="M61.9837 160.27C61.9837 160.27 54.7883 162.975 58.6686 169.928C61.0156 174.133 64.8961 176.712 72.0322 175.768C75.9917 175.244 86.1385 167.842 87.4222 164.124C89.2213 158.913 86.6545 151.71 81.9549 153.258C77.2552 154.807 61.9837 160.27 61.9837 160.27Z" fill="#FBA986"/>
<path d="M87.4203 164.127C86.1407 167.844 75.992 175.245 72.0317 175.768C66.0913 176.554 62.4115 174.902 59.9885 171.897C62.2624 173.322 65.2898 173.941 69.3831 173.399C73.3422 172.87 83.4861 165.47 84.7705 161.752C85.7527 158.907 85.4337 155.466 84.1807 153.184C87.4054 154.135 88.9089 159.81 87.4203 164.127Z" fill="#EF9672"/>
<path d="M69.1928 176.503C64.1303 176.503 60.4997 174.426 58.1416 170.2C56.8955 167.968 56.6047 165.904 57.2774 164.068C58.3695 161.086 61.5945 159.844 61.731 159.792C61.7337 159.791 61.7365 159.79 61.7392 159.789C61.8918 159.735 77.0708 154.307 81.7229 152.774C83.3595 152.235 84.9337 152.623 86.1579 153.864C88.3599 156.098 89.1044 160.687 87.8528 164.311C86.4833 168.278 76.0345 175.777 72.0339 176.306C71.0414 176.437 70.094 176.503 69.1928 176.503ZM62.0997 160.779C61.9903 160.822 59.1717 161.947 58.264 164.437C57.7051 165.971 57.9732 167.737 59.0613 169.687C61.6402 174.307 65.7175 176.079 71.8963 175.262C75.5863 174.773 85.6029 167.601 86.8573 163.968C87.9703 160.744 87.3201 156.543 85.4078 154.604C84.4524 153.635 83.323 153.356 82.0529 153.775C77.4464 155.292 62.4645 160.649 62.0997 160.779Z" fill="#E27E5A"/>
<path d="M56.3191 145.123C56.3191 145.123 50.9808 147.896 51.6241 153C52.2675 158.104 55.1503 162.894 59.7288 162.332C62.0405 162.047 81.4836 156.423 83.5367 154.68C88.7771 150.229 86.583 139.39 80.6557 139.18C76.9387 139.048 56.3191 145.123 56.3191 145.123Z" fill="#FBA986"/>
<path d="M83.539 154.679C81.4892 156.424 62.0439 162.049 59.7328 162.334C57.2922 162.632 55.3374 161.417 53.9434 159.441C54.8732 159.902 55.925 160.103 57.0831 159.959C59.3941 159.674 78.8394 154.049 80.8905 152.31C84.5092 149.234 84.5818 143.115 82.3321 139.551C86.9515 141.503 88.2524 150.676 83.539 154.679Z" fill="#EF9672"/>
<path d="M58.9269 162.921C54.366 162.921 51.6523 157.953 51.0382 153.083C50.3569 147.677 55.7814 144.793 56.0129 144.673C56.0427 144.657 56.0742 144.644 56.1068 144.635C56.9425 144.389 76.405 138.668 80.4783 138.668C80.5245 138.668 80.5687 138.669 80.6109 138.67C83.1257 138.759 85.2569 140.625 86.3115 143.662C87.5151 147.126 87.247 152.182 83.8142 155.098C81.5919 156.985 61.9953 162.593 59.7294 162.871C59.4563 162.905 59.188 162.921 58.9269 162.921ZM56.458 145.63C55.9793 145.896 51.5233 148.507 52.0833 152.951C52.6391 157.358 55.0089 161.866 58.9443 161.866C59.159 161.866 59.3774 161.853 59.6013 161.826C61.943 161.538 81.23 155.911 83.1327 154.295C86.0513 151.816 86.441 147.243 85.3166 144.008C84.41 141.398 82.6372 139.796 80.574 139.723C77.0554 139.598 57.6266 145.287 56.458 145.63Z" fill="#E27E5A"/>
<path d="M51.7822 130.205C51.7822 130.205 46.2025 133.039 46.8196 138.15C47.4366 143.261 50.3855 148.034 55.1524 147.423C57.5592 147.114 77.8353 141.277 79.9881 139.508C85.4831 134.992 83.3121 124.147 77.1505 123.997C73.2863 123.903 51.7822 130.205 51.7822 130.205Z" fill="#FBA986"/>
<path d="M79.9944 139.511C77.8379 141.278 57.5637 147.115 55.1567 147.425C52.5819 147.757 50.5334 146.515 49.1021 144.492C50.104 144.996 51.2411 145.211 52.507 145.05C54.9151 144.745 75.1894 138.908 77.3447 137.137C81.1108 134.039 81.2737 127.973 79.0192 124.41C83.6977 126.434 84.8864 135.487 79.9944 139.511Z" fill="#EF9672"/>
<path d="M54.2633 148.02C52.8269 148.02 51.5044 147.556 50.321 146.635C48.1985 144.982 46.6712 141.84 46.2351 138.23C45.5816 132.816 51.2411 129.874 51.4822 129.752C51.5113 129.737 51.5416 129.725 51.5727 129.716C52.4471 129.46 72.8783 123.486 77.0081 123.486C77.0403 123.486 77.0712 123.487 77.1017 123.487C79.73 123.551 81.931 125.424 82.9896 128.497C84.1784 131.947 83.8314 136.997 80.2608 139.932C77.9339 141.844 57.5154 147.66 55.1577 147.962C54.8551 148.001 54.5568 148.02 54.2633 148.02ZM51.9199 130.712C51.4357 130.974 46.7425 133.644 47.2809 138.104C47.6837 141.441 49.0626 144.32 50.9684 145.804C52.1633 146.734 53.5274 147.109 55.0238 146.917C57.4638 146.604 77.5943 140.759 79.592 139.118C82.6325 136.619 83.1017 132.056 81.9937 128.84C81.0843 126.2 79.2461 124.593 77.0763 124.54C77.0489 124.54 77.0207 124.539 76.992 124.539C73.1257 124.539 53.084 130.372 51.9199 130.712Z" fill="#E27E5A"/>
<path d="M77.15 123.996C74.9904 125.215 63.1705 129.022 55.7621 130.606C55.645 125.254 56.0103 119.963 56.8284 115.385C56.8284 115.385 69.5573 111.173 73.1134 111.063C79.008 110.881 81.4117 121.599 77.15 123.996Z" fill="#FBA986"/>
<path d="M77.1528 123.998C74.1944 125.664 53.0941 132.202 50.0669 131.206C48.685 130.753 47.5532 129.781 46.6802 128.524C46.9208 128.647 47.166 128.747 47.4171 128.831C50.4443 129.828 71.5458 123.294 74.503 121.623C77.3418 120.029 77.2235 114.74 75.0868 111.438C79.4949 113.342 80.9015 121.89 77.1528 123.998Z" fill="#EF9672"/>
<path d="M50.886 131.847C50.4439 131.847 50.088 131.808 49.8337 131.724C46.9513 130.778 44.2637 126.794 43.1462 121.811C41.9131 116.314 42.9236 111.377 45.8485 108.605C46.0601 108.405 46.3933 108.414 46.5933 108.625C46.7932 108.836 46.7843 109.17 46.5733 109.37C43.9201 111.884 43.0229 116.449 44.1738 121.58C45.197 126.142 47.6594 129.901 50.1622 130.723C50.3415 130.782 50.5986 130.81 50.9227 130.81C55.5817 130.81 74.1471 125.066 76.8289 123.556C78.7834 122.456 79.0744 119.255 78.3516 116.661C77.6868 114.275 75.8923 111.521 73.0645 111.607C69.6242 111.714 57.0553 115.86 56.9285 115.902C56.6528 115.993 56.3544 115.843 56.2633 115.567C56.1718 115.291 56.3216 114.993 56.598 114.902C57.1206 114.729 69.4399 110.665 73.0324 110.554C75.86 110.467 78.3558 112.753 79.3664 116.378C80.1735 119.275 79.8855 123.045 77.3453 124.474C74.6947 125.966 56.3123 131.847 50.886 131.847Z" fill="#E27E5A"/>
<path d="M75.4821 105.394C80.3035 93.1423 67.3523 80.5126 67.0932 73.1656C66.8345 65.8221 72.3036 49.6077 82.8704 51.3372C84.0337 51.5292 84.9976 51.7542 85.7893 52.0312C92.1935 54.2263 87.4844 59.3172 87.8954 70.9896C87.9375 72.2214 88.1374 73.4026 88.4737 74.5347C91.6961 85.4693 107.451 91.9096 115.995 95.5539C124.972 99.3784 132.836 113.532 132.836 113.532L75.4821 105.394Z" fill="#FBA986"/>
<path d="M88.4724 74.5347C85.4097 73.8867 81.0885 72.4883 80.3416 70.0465C79.3371 66.7758 82.3067 56.2169 85.7881 52.0312C92.1923 54.2264 87.4832 59.3172 87.8942 70.9896C87.9361 72.2215 88.1361 73.4026 88.4724 74.5347Z" fill="#EF9672"/>
<path d="M115.992 96.0797C115.923 96.0797 115.853 96.0662 115.786 96.0374L115.093 95.7427C105.566 91.6894 87.831 84.1446 87.3681 71.0083C87.2155 66.6821 87.7532 63.281 88.1849 60.5483C89.0603 55.0101 89.3881 52.9379 82.7829 51.8574C80.0332 51.4078 77.4653 52.2143 75.1476 54.255C69.9605 58.8221 67.4412 68.1626 67.6173 73.1493C67.7064 75.6798 69.4586 79.029 71.3133 82.5748C71.4481 82.8325 71.3486 83.1508 71.0908 83.2856C70.8332 83.4203 70.5147 83.3209 70.38 83.063C68.468 79.4082 66.6624 75.9561 66.5646 73.1865C66.3815 67.9909 69.0204 58.2466 74.4515 53.4645C77.0178 51.2051 79.8782 50.315 82.953 50.818C90.592 52.0676 90.1064 55.1384 89.2256 60.7129C88.8007 63.401 88.2717 66.7466 88.4208 70.9714C88.8601 83.4379 106.193 90.812 115.506 94.7735L116.199 95.0686C116.466 95.1826 116.591 95.492 116.477 95.7596C116.391 95.9596 116.197 96.0797 115.992 96.0797Z" fill="#E27E5A"/>
<path d="M92.0837 126.518C91.9905 126.518 91.8961 126.494 91.8107 126.442C78.5389 118.39 76.8552 100.157 76.6527 96.584L76.6478 96.5047C76.6255 96.2155 76.8408 95.961 77.1299 95.9373C77.4231 95.9138 77.6727 96.1266 77.6974 96.4155L77.7042 96.5244C77.9017 100.005 79.5363 117.764 92.3573 125.541C92.6059 125.692 92.6852 126.016 92.5342 126.265C92.4351 126.428 92.2616 126.518 92.0837 126.518Z" fill="#E27E5A"/>
<path d="M101.772 67.4338C101.128 67.3005 100.628 66.976 100.272 66.4595C99.9153 65.9433 99.7953 65.378 99.9116 64.7633C100.119 63.666 100.482 62.0297 101.001 59.8543C101.52 57.6791 101.883 56.0429 102.091 54.9454C102.321 53.7273 102.641 51.8954 103.053 49.4499C103.464 47.0043 103.785 45.1724 104.015 43.9543C104.129 43.3509 104.533 42.8048 105.226 42.3164C105.92 41.8281 106.595 41.6459 107.253 41.7702C107.614 41.8385 108.459 42.3506 109.788 43.3064C111.332 44.4395 112.253 45.0852 112.553 45.244C115.565 46.8934 117.999 49.0242 119.854 51.6365C122.067 54.7488 122.877 57.88 122.282 61.0293C121.923 62.9282 121.116 64.6451 119.861 66.1811C118.6 67.75 117.06 68.908 115.239 69.6551C113.197 70.4967 110.527 70.6058 107.23 69.9826C106.43 69.8315 105.532 69.5423 104.535 69.1152C103.329 68.5916 102.408 68.0313 101.772 67.4338ZM114.205 52.2568C113.269 51.3868 111.19 49.9026 107.967 47.8043L104.887 64.1011C105.262 64.4562 105.713 64.7547 106.24 64.9963C106.768 65.2382 107.371 65.423 108.051 65.5514C110.417 65.9987 112.177 65.9904 113.331 65.5265C114.424 65.0852 115.36 64.3813 116.138 63.4144C116.917 62.4478 117.416 61.3827 117.635 60.2194C118.15 57.4978 117.006 54.8437 114.205 52.2568Z" fill="#1163C7"/>
<path d="M132.21 76.3944C129.155 75.1465 126.914 73.2051 125.485 70.5707C123.962 67.7532 123.812 64.8503 125.033 61.8622C126.469 58.3471 128.877 55.5909 132.258 53.5938C136.055 51.3445 139.826 50.985 143.573 52.5154C147.174 53.9866 149.535 55.9165 150.656 58.3042C151.775 60.692 151.658 63.5452 150.301 66.8642C148.866 70.3794 146.553 73.1507 143.365 75.1781C139.685 77.5236 135.967 77.9288 132.21 76.3944ZM141.856 56.7182C139.554 55.7781 137.127 56.0895 134.574 57.6525C132.183 59.1128 130.468 61.1147 129.429 63.6582C128.728 65.3745 128.823 67.0422 129.716 68.6612C130.573 70.2179 131.976 71.3947 133.927 72.1915C136.198 73.1189 138.547 72.7759 140.977 71.1624C143.202 69.6948 144.845 67.6633 145.905 65.0682C146.792 62.897 146.923 61.1894 146.3 59.9453C145.701 58.7593 144.219 57.6836 141.856 56.7182Z" fill="#1163C7"/>
<path d="M168.385 92.3943C168.055 92.845 167.457 93.501 166.592 94.3625C165.561 95.3935 164.479 95.4944 163.346 94.665C162.716 94.2041 162.266 93.3278 161.995 92.0366C160.82 86.3746 160.119 79.1292 159.894 70.3007C158.125 72.6048 157.046 74.0226 156.656 74.5543C156.136 75.2665 155.367 76.3503 154.35 77.8066C153.332 79.2627 152.563 80.347 152.042 81.0589C150.096 83.718 148.476 84.5733 147.18 83.6254C146.523 83.1448 146.146 82.5569 146.047 81.8617C145.96 81.2444 146.104 80.679 146.48 80.1652C146.744 79.8047 147.172 79.2806 147.764 78.5935C148.357 77.9061 148.786 77.3824 149.05 77.0218C149.438 76.4901 150.04 75.7054 150.855 74.6682C151.668 73.6311 152.27 72.8466 152.66 72.3147C153.075 71.7468 153.688 70.8809 154.499 69.7164C155.309 68.5521 155.922 67.6858 156.338 67.1179C156.734 66.5772 157.27 65.7311 157.947 64.5793C158.624 63.4278 159.16 62.5815 159.556 62.0407C159.951 61.5 160.536 61.1874 161.31 61.1027C162.083 61.0182 162.766 61.1931 163.36 61.6275C164.026 62.1146 164.342 63.2313 164.307 64.9775C164.118 73.8067 164.662 81.5197 165.941 88.1158C166.162 87.8339 166.668 87.1522 167.459 86.0707C170.71 81.6273 172.858 78.5972 173.903 76.9811C174.076 76.7065 174.374 76.1771 174.796 75.3927C175.167 74.696 175.485 74.1673 175.749 73.8067C176.659 72.5629 177.771 72.4214 179.085 73.3826C180.551 74.4555 179.626 77.2591 176.308 81.7928C176.236 81.8921 175.705 82.5973 174.718 83.9091C171.313 88.4482 169.203 91.2766 168.385 92.3943Z" fill="#1163C7"/>
<path d="M194.304 95.8702C194.158 95.7017 194.03 95.5029 193.92 95.2739C193.107 93.5881 192.142 92.1009 191.024 90.813C190.475 90.1815 189.837 89.5477 189.107 88.9116C188.377 88.2753 187.556 87.6369 186.645 86.9961C185.523 87.9699 183.825 89.3781 181.55 91.2204C181.992 91.6626 183.577 93.1728 186.304 95.7514C187.86 97.2204 188.824 98.1693 189.197 98.5987C189.628 99.0953 189.839 99.6578 189.83 100.286C189.821 100.914 189.554 101.455 189.031 101.909C188.027 102.781 186.994 102.74 185.931 101.788C185.296 101.158 184.338 100.226 183.059 98.9897C181.885 97.9114 180.157 96.2526 177.873 94.0134C176.751 94.8843 175.861 95.6053 175.203 96.1764C173.549 97.6115 172.693 98.5244 172.634 98.9158C172.604 99.1036 173.01 99.6815 173.85 100.65C174.303 101.171 174.999 101.947 175.939 102.978C176.877 104.008 177.573 104.784 178.026 105.307C178.172 105.475 178.413 105.701 178.749 105.986C179.085 106.27 179.322 106.492 179.461 106.652C179.884 107.14 180.107 107.678 180.128 108.265C180.16 108.931 179.893 109.51 179.328 110C178.383 110.82 177.391 110.819 176.35 109.995C175.459 109.292 173.862 107.615 171.56 104.963C169.178 102.218 167.996 100.107 168.015 98.6296C168.036 97.0018 169.409 95.0055 172.133 92.6406C173.263 91.6596 175.032 90.2681 177.439 88.4665C179.846 86.6648 181.61 85.2772 182.732 84.3034C183.028 84.0472 183.427 83.6261 183.932 83.0405C184.436 82.4549 184.836 82.0339 185.132 81.7776C186.414 80.6648 187.566 80.6974 188.589 81.8761C188.911 82.2464 189.101 82.679 189.161 83.1735C190.253 83.9377 191.242 84.7065 192.129 85.4801C193.014 86.2537 193.797 87.032 194.477 87.8148C196.319 89.9363 197.547 91.8449 198.161 93.5407C198.538 94.5716 198.339 95.4237 197.563 96.0971C197.124 96.478 196.604 96.6633 196.004 96.6529C195.324 96.6531 194.758 96.3921 194.304 95.8702Z" fill="#1163C7"/>
<path d="M210.39 73.1671C203.233 75.5336 186.431 72.5669 187.236 72.0056C186.356 71.641 199.047 59.9346 206.167 58.623C216.926 56.641 220.324 69.8829 210.39 73.1671Z" fill="#FC8019"/>
<path d="M165.934 33.6703C162.767 38.9498 150.791 46.0712 150.99 45.2949C150.251 45.5386 151.862 31.531 155.568 26.9237C161.167 19.9622 170.328 26.3435 165.934 33.6703Z" fill="#1163C7"/>
<path d="M192.65 58.6829C189.682 61.0041 181.279 62.4447 181.563 62.0449C181.087 62.0219 185.08 54.3738 188.208 52.5551C193.989 49.1935 197.507 54.883 192.65 58.6829Z" fill="#1163C7"/>
<path d="M118.696 22.6041C121.752 26.5622 123.593 37.7291 123.065 37.3489C123.03 37.9799 112.912 32.6145 110.525 28.4475C106.917 22.1512 114.456 17.1112 118.696 22.6041Z" fill="#1163C7"/>
<path d="M142.867 11.3086C143.243 21.1078 133.475 41.0383 133.064 39.8297C132.291 40.7983 122.237 20.7146 123.165 11.3421C124.568 -2.81985 142.344 -2.29066 142.867 11.3086Z" fill="#FC8019"/>
<path d="M53.9506 52.0984C45.5853 38.3932 27.6943 34.0615 13.989 42.4268C0.280129 50.7941 -4.04602 68.6863 4.31931 82.3915C12.6846 96.0968 30.5756 100.428 44.2844 92.0611C46.7008 90.5862 48.8258 88.8175 50.6377 86.8193C53.1701 84.0498 55.0982 80.841 56.3775 77.4114C59.3831 69.3407 58.7866 60.0215 53.9506 52.0984Z" fill="#1163C7"/>
<path d="M56.3735 77.4112L48.7146 72.9473C48.7146 72.9473 48.5986 79.8726 50.6337 86.8191C53.1661 84.0495 55.0942 80.8409 56.3735 77.4112Z" fill="#1163C7"/>
<path d="M48.7161 72.9473L35.0732 87.3528C35.1336 87.7258 62.9975 93.3966 62.9975 93.3966C62.9975 93.3966 48.6642 73.679 48.7161 72.9473Z" fill="#1163C7"/>
<path d="M22.3886 81.5358C21.9393 81.5358 21.49 81.3644 21.1472 81.0216L14.316 74.1906C13.6303 73.505 13.6303 72.3935 14.316 71.7078C15.0017 71.0222 16.1131 71.0222 16.7989 71.7078L22.3886 77.2975L44.1059 55.5806C44.7911 54.8951 45.9034 54.8949 46.5885 55.5806C47.2743 56.2663 47.2743 57.3778 46.5885 58.0634L23.6301 81.0216C23.2872 81.3644 22.838 81.5358 22.3886 81.5358Z" fill="white"/>
<path d="M29.1329 110.695C29.1329 110.695 31.2458 115.58 32.4783 116.812C33.7107 118.044 38.5949 120.157 38.5949 120.157C38.5949 120.157 33.7107 122.27 32.4783 123.503C31.2458 124.735 29.1329 129.619 29.1329 129.619C29.1329 129.619 27.02 124.735 25.7876 123.503C24.5551 122.27 19.6709 120.157 19.6709 120.157C19.6709 120.157 24.5551 118.044 25.7876 116.812C27.0201 115.58 29.1329 110.695 29.1329 110.695Z" fill="#FC8019"/>
<path d="M102.683 180.373C102.683 180.373 102.847 184.608 103.407 185.878C103.968 187.148 106.987 190.123 106.987 190.123C106.987 190.123 102.752 190.286 101.482 190.847C100.212 191.408 97.2372 194.427 97.2372 194.427C97.2372 194.427 97.0737 190.192 96.513 188.922C95.9525 187.652 92.9331 184.677 92.9331 184.677C92.9331 184.677 97.1685 184.514 98.4384 183.953C99.7084 183.392 102.683 180.373 102.683 180.373Z" fill="#FC8019"/>
<path d="M212.982 110.877C212.982 110.877 208.744 110.859 207.451 111.364C206.158 111.869 203.056 114.758 203.056 114.758C203.056 114.758 203.075 110.519 202.57 109.226C202.064 107.934 199.176 104.832 199.176 104.832C199.176 104.832 203.414 104.85 204.707 104.345C206 103.84 209.102 100.951 209.102 100.951C209.102 100.951 209.083 105.19 209.589 106.483C210.094 107.775 212.982 110.877 212.982 110.877Z" fill="#FC8019"/>
<path d="M78.55 24.0703C78.55 24.0703 83.2328 28.3902 85.1797 29.1409C87.1267 29.8916 93.4974 29.8336 93.4974 29.8336C93.4974 29.8336 89.1775 34.5164 88.4268 36.4633C87.6761 38.4102 87.7341 44.781 87.7341 44.781C87.7341 44.781 83.0513 40.4611 81.1043 39.7103C79.1574 38.9596 72.7866 39.0176 72.7866 39.0176C72.7866 39.0176 77.1066 34.3349 77.8573 32.388C78.608 30.4412 78.55 24.0703 78.55 24.0703Z" fill="#FC8019"/>
</svg>
