<svg width="13" height="13" viewBox="0 0 13 13" fill="none" xmlns="http://www.w3.org/2000/svg">
<g clip-path="url(#clip0_4175_16596)">
<path d="M6.40042 12.5549C6.46552 12.6525 6.57512 12.7112 6.69247 12.7112C6.80982 12.7112 6.91943 12.6526 6.98453 12.5549C7.8152 11.3089 9.03871 9.77011 9.8913 8.20511C10.573 6.95378 10.9044 5.88653 10.9044 4.94244C10.9044 2.61996 9.01496 0.730469 6.69247 0.730469C4.36999 0.730469 2.4805 2.61996 2.4805 4.94244C2.4805 5.88653 2.81191 6.95378 3.49364 8.20511C4.34561 9.76892 5.57146 11.3115 6.40042 12.5549ZM6.69247 1.43246C8.62788 1.43246 10.2025 3.00704 10.2025 4.94244C10.2025 5.76621 9.89903 6.72359 9.27486 7.86927C8.53994 9.21825 7.4912 10.5867 6.69247 11.737C5.89386 10.5868 4.84505 9.21832 4.11009 7.86927C3.48592 6.72359 3.18249 5.76621 3.18249 4.94244C3.18249 3.00704 4.75707 1.43246 6.69247 1.43246Z" fill="#1163C7"/>
<path d="M6.69293 7.04889C7.85417 7.04889 8.79892 6.10414 8.79892 4.9429C8.79892 3.78166 7.85417 2.83691 6.69293 2.83691C5.53169 2.83691 4.58694 3.78166 4.58694 4.9429C4.58694 6.10414 5.53169 7.04889 6.69293 7.04889ZM6.69293 3.53891C7.46709 3.53891 8.09692 4.16874 8.09692 4.9429C8.09692 5.71706 7.46709 6.34689 6.69293 6.34689C5.91877 6.34689 5.28894 5.71706 5.28894 4.9429C5.28894 4.16874 5.91877 3.53891 6.69293 3.53891Z" fill="#1163C7"/>
</g>
<defs>
<clipPath id="clip0_4175_16596">
<rect width="11.9807" height="11.9807" fill="white" transform="translate(0.702179 0.730469)"/>
</clipPath>
</defs>
</svg>
