<svg width="24" height="24" viewBox="0 0 24 24" fill="none" xmlns="http://www.w3.org/2000/svg">
<g clip-path="url(#clip0_4186_81577)">
<path d="M21.7253 1.94141H11.6083C10.4394 1.94141 9.48838 2.89244 9.48838 4.06133V10.5513L7.60986 9.61713C7.54644 9.5855 7.48196 9.55564 7.41695 9.52735C7.96845 8.9516 8.30842 8.17152 8.30842 7.31325C8.30842 5.54665 6.87124 4.1093 5.10464 4.1093C3.33786 4.1093 1.90068 5.54665 1.90068 7.31325C1.90068 8.27324 2.32569 9.13555 2.99684 9.72325C1.76083 10.4186 0.81665 11.7752 0.81665 13.4557V15.6236C0.81665 16.5569 1.42262 17.3512 2.26191 17.6335V21.4048C2.26191 21.7773 2.56393 22.0795 2.93657 22.0795H7.27235C7.645 22.0795 7.94702 21.7773 7.94702 21.4048V13.8245L10.107 14.9043C10.9336 15.3175 12.0549 15.0712 12.562 14.1304H14.9809L12.4195 21.1741C12.2921 21.5243 12.4729 21.9115 12.8231 22.0387C13.2233 22.1843 13.5792 21.9333 13.6876 21.6353L16.4167 14.1304H16.8897L19.6467 21.6374C19.7514 21.9222 20.1047 22.1879 20.5127 22.038C20.8623 21.9096 21.0418 21.522 20.9132 21.1722L18.327 14.1304H21.7253C22.8715 14.1304 23.8452 13.2057 23.8452 12.0104V4.06133C23.8452 2.86591 22.8715 1.94141 21.7253 1.94141ZM3.25001 7.31325C3.25001 6.29054 4.08192 5.45863 5.10446 5.45863C6.12718 5.45863 6.95909 6.29054 6.95909 7.31325C6.95909 8.33579 6.12718 9.1677 5.10446 9.1677C4.08192 9.1677 3.25001 8.33579 3.25001 7.31325ZM11.4089 13.409C11.4071 13.4139 11.4054 13.419 11.4038 13.4241C11.3578 13.5525 11.2538 13.6607 11.1264 13.7131C10.9916 13.7679 10.84 13.7621 10.7105 13.6974C9.42759 13.0556 7.57384 12.1296 7.57384 12.1296C7.12618 11.9057 6.59769 12.2318 6.59769 12.7331V20.7301H3.61124V17.0688C3.61124 16.6964 3.30905 16.3942 2.93657 16.3942C2.51157 16.3942 2.16598 16.0486 2.16598 15.6236V13.4557C2.16598 11.8072 3.50828 10.5172 5.10446 10.5172H5.70059C6.15283 10.5172 6.60454 10.6233 7.00811 10.8248C7.00811 10.8248 10.3546 12.489 11.2068 12.9135C11.3894 13.0042 11.4762 13.2171 11.4089 13.409ZM22.4959 12.0104C22.4959 12.2165 22.416 12.41 22.2705 12.5554C22.1273 12.6988 21.9286 12.781 21.7253 12.781H12.7087C12.7074 12.7773 12.7066 12.7736 12.7053 12.7701L14.3797 9.42158C14.5463 9.08829 14.4113 8.68314 14.078 8.51641C13.7449 8.34985 13.3396 8.48478 13.1729 8.81807L11.7448 11.674C11.4786 11.5413 11.1692 11.3872 10.8377 11.2224V4.06133C10.8377 3.6365 11.1833 3.29074 11.6083 3.29074H21.7253C21.9286 3.29074 22.1273 3.37296 22.2707 3.51668C22.416 3.6618 22.4959 3.85524 22.4959 4.06133V12.0104Z" fill="#1163C7"/>
<path d="M20.2781 4.83398H13.0516C12.679 4.83398 12.377 5.136 12.377 5.50865C12.377 5.8813 12.679 6.18331 13.0516 6.18331H20.2781C20.6506 6.18331 20.9528 5.8813 20.9528 5.50865C20.9528 5.136 20.6507 4.83398 20.2781 4.83398Z" fill="#1163C7"/>
<path d="M20.2821 7.36133H16.6688C16.2963 7.36133 15.9941 7.66335 15.9941 8.03599C15.9941 8.40864 16.2963 8.71066 16.6688 8.71066H20.2821C20.6546 8.71066 20.9568 8.40864 20.9568 8.03599C20.9568 7.66335 20.6548 7.36133 20.2821 7.36133Z" fill="#1163C7"/>
<path d="M20.2821 9.89062H16.6688C16.2963 9.89062 15.9941 10.1926 15.9941 10.5653C15.9941 10.9378 16.2963 11.24 16.6688 11.24H20.2821C20.6546 11.24 20.9568 10.9378 20.9568 10.5653C20.9568 10.1926 20.6548 9.89062 20.2821 9.89062Z" fill="#1163C7"/>
</g>
<defs>
<clipPath id="clip0_4186_81577">
<rect width="23.0286" height="23.0286" fill="white" transform="translate(0.816406 0.503906)"/>
</clipPath>
</defs>
</svg>
