<svg width="41" height="40" viewBox="0 0 41 40" fill="none" xmlns="http://www.w3.org/2000/svg">
<path d="M4.71484 33.7295C6.044 34.9496 7.70521 35.748 9.48828 36.0237C9.68281 35.0452 9.64684 34.0349 9.38321 33.0728C9.11959 32.1106 8.63556 31.2231 7.96945 30.4805L4.71484 33.7295Z" fill="#1163C7"/>
<path d="M21.5217 32.3594C20.9975 32.3594 20.485 32.5149 20.0491 32.8061C19.6132 33.0974 19.2735 33.5114 19.0728 33.9958C18.8722 34.4801 18.8198 35.0131 18.922 35.5273C19.0243 36.0414 19.2768 36.5137 19.6475 36.8844C20.0182 37.2551 20.4905 37.5076 21.0047 37.6099C21.5189 37.7121 22.0518 37.6596 22.5362 37.459C23.0205 37.2584 23.4345 36.9186 23.7258 36.4827C24.017 36.0468 24.1725 35.5343 24.1725 35.0101C24.1717 34.3073 23.8922 33.6335 23.3952 33.1366C22.8983 32.6397 22.2245 32.3601 21.5217 32.3594Z" fill="#1163C7"/>
<path d="M20.053 26.3373C19.611 26.4192 19.1623 26.4605 18.7127 26.4607C16.9217 26.4609 15.1944 25.7955 13.8663 24.5938L11.4648 26.991L17.6621 33.1773C19.2197 31.4945 20.0822 29.2842 20.0762 26.9912C20.0762 26.772 20.0685 26.554 20.053 26.3373Z" fill="#1163C7"/>
<path d="M8.52344 29.9279C9.26545 30.7579 9.80825 31.7464 10.1105 32.8179C10.4127 33.8895 10.4665 35.0159 10.2676 36.1113C11.5101 36.2004 12.7577 36.0351 13.9341 35.6255C15.1105 35.2159 16.1909 34.5706 17.1094 33.7291L10.9122 27.543L8.52344 29.9279Z" fill="#1163C7"/>
<path d="M27.3735 36.3652C27.3505 36.381 27.3308 36.4012 27.3155 36.4247C27.3003 36.4481 27.2899 36.4744 27.2848 36.5019C27.2797 36.5294 27.2801 36.5576 27.2859 36.5849C27.2918 36.6123 27.303 36.6382 27.3188 36.6612C27.5194 36.9507 27.8265 37.1489 28.1728 37.2126C28.5192 37.2762 28.8767 37.2001 29.167 37.0009L30.3998 36.1532C30.5674 36.0374 30.7062 35.8845 30.8053 35.7065L29.4217 34.957L27.3735 36.3652Z" fill="#1163C7"/>
<path d="M28.6499 34.5391L26.4141 33.3281L27.7003 35.1921L28.6499 34.5391Z" fill="#1163C7"/>
<path d="M34.8883 24.6039L25.9546 25.1808L25.5508 27.0636L34.4831 27.7194C34.7213 27.7361 34.9586 27.6763 35.1604 27.5487L37.4821 26.0687L35.8973 24.8951C35.6069 24.68 35.2487 24.5766 34.8883 24.6039Z" fill="#1163C7"/>
<path d="M36.657 6.73617C36.2717 6.0022 35.6895 5.39015 34.9756 4.96875L34.4023 6.21016L36.4622 7.15781L36.657 6.73617Z" fill="#1163C7"/>
<path d="M33.4366 32.7375L24.9922 29.6758L24.6094 31.4609L32.457 35.7115C32.7961 35.8958 33.1932 35.9423 33.5658 35.8414L35.5023 35.3202L33.9637 33.1398C33.8335 32.9547 33.6494 32.8143 33.4366 32.7375Z" fill="#1163C7"/>
<path d="M34.5623 28.503C34.5169 28.503 34.4716 28.5013 34.4263 28.498L25.3858 27.834L25.1562 28.9043L33.7016 32.0026C33.7848 32.033 33.8657 32.0692 33.9438 32.1109L37.1674 30.7487L34.8457 28.4809C34.7519 28.4953 34.6572 28.5027 34.5623 28.503Z" fill="#1163C7"/>
<path d="M22.7227 30.9551L24.0247 24.8624L25.1693 25.1071L23.8673 31.1997L22.7227 30.9551Z" fill="#1163C7"/>
<path d="M26.4175 24.368L27.9698 21.0061C27.7306 20.9289 27.4961 20.8376 27.2677 20.7327C27.0393 20.627 26.8172 20.5082 26.6024 20.377L24.8203 24.2363L25.6641 24.4166L26.4175 24.368Z" fill="#1163C7"/>
<path d="M22.1791 23.9937L22.0748 23.8426C21.6775 23.2676 21.5071 22.5658 21.5967 21.8727C21.6616 21.3707 21.5383 20.8625 21.2505 20.4462L10.945 5.51297C10.6219 5.04685 10.1274 4.72765 9.56959 4.62517C9.01178 4.52268 8.4361 4.64526 7.96843 4.96609C7.73721 5.12487 7.53958 5.3277 7.38686 5.56296C7.23414 5.79822 7.12932 6.06129 7.0784 6.33712C7.02749 6.61295 7.03148 6.89611 7.09015 7.17039C7.14882 7.44467 7.26101 7.70468 7.4203 7.93555L14.0766 17.5804C15.6905 18.1198 17.139 19.0644 18.2833 20.324C19.4276 21.5835 20.2294 23.1157 20.6119 24.7739C21.0481 24.3681 21.5923 24.0972 22.1791 23.9937ZM8.78077 7.24875C8.73807 7.27718 8.69019 7.29692 8.63986 7.30685C8.58953 7.31677 8.53774 7.31668 8.48744 7.30659C8.43715 7.2965 8.38933 7.2766 8.34673 7.24803C8.30412 7.21946 8.26756 7.18278 8.23913 7.14008L8.15023 7.00594C8.1218 6.96324 8.10206 6.91536 8.09213 6.86503C8.08221 6.8147 8.08229 6.76291 8.09238 6.71261C8.10248 6.66231 8.12237 6.6145 8.15094 6.57189C8.17952 6.52929 8.2162 6.49273 8.2589 6.4643C8.3016 6.43587 8.34948 6.41613 8.39981 6.4062C8.45014 6.39628 8.50193 6.39636 8.55222 6.40646C8.60252 6.41655 8.65034 6.43644 8.69294 6.46502C8.73555 6.49359 8.77211 6.53027 8.80054 6.57297L8.88976 6.70711C8.91817 6.74983 8.93789 6.79773 8.94779 6.84807C8.9577 6.89841 8.95758 6.95021 8.94746 7.0005C8.93734 7.0508 8.91741 7.09861 8.88881 7.14121C8.86021 7.1838 8.8235 7.22035 8.78077 7.24875ZM12.9136 13.4575C12.8709 13.4859 12.823 13.5057 12.7727 13.5156C12.7223 13.5255 12.6706 13.5254 12.6203 13.5153C12.57 13.5053 12.5221 13.4854 12.4795 13.4568C12.4369 13.4282 12.4004 13.3915 12.3719 13.3488L9.03093 8.32969C9.00166 8.28701 8.98116 8.23893 8.97062 8.18826C8.96009 8.13759 8.95973 8.08533 8.96956 8.03451C8.9794 7.9837 8.99923 7.93535 9.02792 7.89227C9.0566 7.84919 9.09356 7.81224 9.13664 7.78356C9.17973 7.75489 9.22808 7.73506 9.2789 7.72523C9.32971 7.7154 9.38197 7.71577 9.43264 7.72631C9.48331 7.73686 9.53138 7.75736 9.57406 7.78664C9.61674 7.81592 9.65317 7.85339 9.68124 7.89687L13.0223 12.9159C13.0797 13.0022 13.1005 13.1076 13.0802 13.2092C13.0598 13.3108 12.9999 13.4001 12.9137 13.4575H12.9136Z" fill="#1163C7"/>
<path d="M21.9484 30.8281L23.258 24.7224C22.1149 24.6046 21.0495 25.0988 20.7971 25.8973C20.837 26.2608 20.8571 26.6262 20.8573 26.992C20.8585 28.0468 20.6918 29.095 20.3633 30.0974C20.7992 30.6751 21.5188 30.7855 21.9484 30.8281Z" fill="#1163C7"/>
<path d="M31.1304 11.4302L29.0706 10.4824L28.2812 12.192L30.341 13.1398L31.1304 11.4302Z" fill="#1163C7"/>
<path d="M7.96831 29.376L10.3575 26.9912L4.16019 20.8047C2.60259 22.4876 1.74007 24.6979 1.74613 26.9909C1.74613 27.2069 1.75365 27.4217 1.7687 27.6352C2.86643 27.4355 3.99521 27.4885 5.0694 27.7901C6.1436 28.0918 7.13497 28.6341 7.96831 29.376Z" fill="#1163C7"/>
<path d="M1.85938 28.4135C2.13626 30.1952 2.9385 31.8537 4.16344 33.1768L7.41836 29.9277C6.67235 29.262 5.78188 28.7787 4.81719 28.5159C3.85249 28.2532 2.83993 28.2181 1.85938 28.4135Z" fill="#1163C7"/>
<path d="M13.3139 24.0413C12.5659 23.2177 12.0188 22.232 11.7158 21.1614C11.4127 20.0908 11.3618 18.9646 11.5671 17.8711C11.3491 17.8555 11.1307 17.8477 10.912 17.8477C8.61777 17.8437 6.40581 18.7022 4.71484 20.2527L10.912 26.4388L13.3139 24.0413Z" fill="#1163C7"/>
<path d="M17.1103 20.2537C15.7837 19.0358 14.1262 18.2381 12.3468 17.9609C12.1552 18.9374 12.193 19.945 12.457 20.9044C12.7211 21.8638 13.2043 22.7488 13.8685 23.4897L17.1103 20.2537Z" fill="#1163C7"/>
<path d="M19.9665 25.5583C19.6882 23.7802 18.8867 22.1254 17.6641 20.8047L14.4219 24.0409C15.1661 24.7048 16.054 25.1873 17.016 25.4506C17.978 25.7138 18.9879 25.7507 19.9665 25.5583Z" fill="#1163C7"/>
<path d="M26.0421 15.1746L26.1255 14.9938L25.9648 14.9199C25.9889 15.0055 26.0147 15.0904 26.0421 15.1746Z" fill="#1163C7"/>
<path d="M32.293 18.0527C32.3757 18.0185 32.4582 17.9823 32.5405 17.9441L32.3777 17.8691L32.293 18.0527Z" fill="#1163C7"/>
<path d="M25.7773 11.9004C25.6854 12.5873 25.6836 13.2833 25.7722 13.9707L26.455 14.2848L27.2441 12.5752L25.7773 11.9004Z" fill="#1163C7"/>
<path d="M28.8477 18.2402C29.6331 18.5066 30.477 18.5508 31.286 18.368L31.6668 17.5434L29.607 16.5957L28.8477 18.2402Z" fill="#1163C7"/>
<path d="M26.8369 15.3203L26.457 16.143C26.8419 16.8774 27.4238 17.4899 28.1376 17.9119L28.8966 16.268L26.8369 15.3203Z" fill="#1163C7"/>
<path d="M32.7031 17.1608L33.3849 17.4745C33.965 17.0942 34.4938 16.6408 34.9584 16.1256L33.4926 15.4512L32.7031 17.1608Z" fill="#1163C7"/>
<path d="M30.723 14.1758L29.9336 15.8854L31.9934 16.8331L32.7828 15.1235L30.723 14.1758Z" fill="#1163C7"/>
<path d="M35.5213 2.85873C34.7633 2.51187 33.9388 2.33417 33.1052 2.33795C29.9998 2.33795 26.6897 4.67522 24.9659 8.40826C23.7254 11.0949 23.5213 14.0107 24.4059 16.4083C25.0303 18.1003 26.133 19.3501 27.5949 20.0227C31.2302 21.6955 35.965 19.2056 38.1502 14.4733C39.3907 11.7865 39.5948 8.87084 38.7102 6.47326C38.0859 4.78115 36.9831 3.53123 35.5213 2.85873ZM37.2438 14.0572C35.7673 17.2544 32.9252 19.2544 30.253 19.2544C29.5306 19.2576 28.8161 19.1035 28.1592 18.8029C26.8874 18.2177 25.93 17.1358 25.3907 15.6742C24.6338 13.623 24.8092 11.1262 25.8724 8.82397C27.7466 4.76498 31.8224 2.636 34.957 4.07826C36.2288 4.66342 37.1862 5.74529 37.7256 7.20686C38.4824 9.25811 38.3069 11.7549 37.2438 14.0571V14.0572Z" fill="#1163C7"/>
<path d="M36.8438 8.19336L36.0547 9.90305L37.386 10.5155C37.4424 9.80134 37.3974 9.08274 37.2522 8.38117L36.8438 8.19336Z" fill="#1163C7"/>
<path d="M34.9375 12.3229L36.7734 13.1675C37.0059 12.574 37.1776 11.9585 37.2859 11.3305L35.727 10.6133L34.9375 12.3229Z" fill="#1163C7"/>
<path d="M33.8203 14.7405L35.4745 15.5015C35.856 14.9958 36.1866 14.4536 36.4613 13.8828L34.6098 13.0312L33.8203 14.7405Z" fill="#1163C7"/>
<path d="M32.2477 9.01219L30.1878 8.06445L29.3984 9.77406L31.4582 10.7218L32.2477 9.01219Z" fill="#1163C7"/>
<path d="M36.1343 7.86758L34.0745 6.91992L33.2852 8.62953L35.3449 9.57719L36.1343 7.86758Z" fill="#1163C7"/>
<path d="M27.1641 14.612L29.2238 15.5596L30.0132 13.85L27.9534 12.9023L27.1641 14.612Z" fill="#1163C7"/>
<path d="M28.3618 10.1555L26.5125 9.30469C26.2559 9.88354 26.0568 10.4862 25.918 11.104L27.5724 11.8652L28.3618 10.1555Z" fill="#1163C7"/>
<path d="M35.0171 10.2855L32.9573 9.33789L32.168 11.0475L34.2277 11.9952L35.0171 10.2855Z" fill="#1163C7"/>
<path d="M34.2655 4.64197C33.81 4.48344 33.3309 4.40309 32.8485 4.40431C32.5049 4.40558 32.1624 4.44284 31.8266 4.51548L31.6328 4.93509L33.6926 5.88275L34.2655 4.64197Z" fill="#1163C7"/>
<path d="M33.8999 12.7055L31.8402 11.7578L31.0508 13.4674L33.1105 14.4151L33.8999 12.7055Z" fill="#1163C7"/>
<path d="M29.4784 7.73766L27.9254 7.02344C27.5162 7.51274 27.1577 8.0423 26.8555 8.60398L28.689 9.44773L29.4784 7.73766Z" fill="#1163C7"/>
<path d="M30.5941 5.31867L30.1898 5.13281C29.563 5.48013 28.9877 5.91309 28.4805 6.41922L29.8047 7.02859L30.5941 5.31867Z" fill="#1163C7"/>
<path d="M32.5754 8.3018L33.3648 6.59219L31.305 5.64453L30.5156 7.35414L32.5754 8.3018Z" fill="#1163C7"/>
</svg>
