<svg width="20" height="20" viewBox="0 0 20 20" fill="none" xmlns="http://www.w3.org/2000/svg">
<path d="M10.0002 0.160156C15.426 0.160156 19.8402 4.57429 19.8402 10.0002C19.8402 15.426 15.426 19.8402 10.0002 19.8402C4.57429 19.8402 0.160156 15.426 0.160156 10.0002C0.160156 4.57429 4.57429 0.160156 10.0002 0.160156ZM7.54016 14.2117C9.88297 14.2117 11.7892 12.3224 11.7892 10.0002C11.7892 9.50637 11.3885 9.10561 10.8947 9.10561H7.83357C7.33978 9.10561 6.93902 9.50637 6.93902 10.0002C6.93902 10.4939 7.33978 10.8947 7.83357 10.8947H9.82617C9.46388 11.7888 8.57559 12.4226 7.54016 12.4226C6.18402 12.4226 5.08016 11.3362 5.08016 10.0002C5.08016 8.66415 6.18402 7.57773 7.54016 7.57773C8.06525 7.57773 8.56575 7.7383 8.98843 8.04244C9.39008 8.33183 9.94872 8.23924 10.2368 7.83849C10.5257 7.43773 10.434 6.87864 10.0333 6.5897C9.3042 6.0655 8.4423 5.78819 7.54016 5.78819C5.19734 5.78819 3.29106 7.67747 3.29106 9.99971C3.29106 12.3219 5.19734 14.2117 7.54016 14.2117ZM16.0383 10.8947C16.5321 10.8947 16.9329 10.4939 16.9329 10.0002C16.9329 9.50637 16.5321 9.10561 16.0383 9.10561H15.6139V8.45706C15.6139 7.96328 15.2131 7.56252 14.7193 7.56252C14.2255 7.56252 13.8248 7.96328 13.8248 8.45706V9.10561H13.3547C12.8609 9.10561 12.4602 9.50637 12.4602 10.0002C12.4602 10.4939 12.8609 10.8947 13.3547 10.8947H13.8248V11.5432C13.8248 12.037 14.2255 12.4378 14.7193 12.4378C15.2131 12.4378 15.6139 12.037 15.6139 11.5432V10.8947H16.0383Z" fill="#1163C7"/>
</svg>
