<svg width="24" height="24" viewBox="0 0 24 24" fill="none" xmlns="http://www.w3.org/2000/svg">
<path d="M11.9117 2.16016C2.86781 2.16016 2.16016 2.8683 2.16016 11.9117V12.0886C2.16016 21.132 2.86781 21.8402 11.9117 21.8402H12.0886C21.1325 21.8402 21.8402 21.132 21.8402 12.0886V12.0002C21.8402 2.87454 21.1258 2.16016 12.0002 2.16016H11.9117ZM17.9013 5.11216C18.4449 5.11068 18.8867 5.54961 18.8882 6.09327C18.8896 6.63693 18.4507 7.07868 17.907 7.08016C17.3634 7.08163 16.9216 6.6427 16.9202 6.09904C16.9187 5.55538 17.3576 5.11363 17.9013 5.11216ZM11.9886 7.08016C14.7054 7.07376 16.9138 9.2718 16.9202 11.9886C16.9266 14.7054 14.7285 16.9138 12.0117 16.9202C9.29486 16.9266 7.08655 14.7285 7.08016 12.0117C7.07376 9.29486 9.2718 7.08655 11.9886 7.08016ZM11.9934 9.04816C10.3629 9.05209 9.04422 10.3774 9.04816 12.0078C9.05209 13.6378 10.3769 14.9561 12.0069 14.9522C13.6374 14.9482 14.9561 13.6234 14.9522 11.9934C14.9482 10.3629 13.6234 9.04422 11.9934 9.04816Z" fill="#1163C7"/>
</svg>
