<svg width="24" height="24" viewBox="0 0 24 24" fill="none" xmlns="http://www.w3.org/2000/svg">
<path d="M19.4973 2.16016H4.50301C3.20976 2.16016 2.16016 3.20976 2.16016 4.50301V19.4973C2.16016 20.7906 3.20976 21.8402 4.50301 21.8402H19.4973C20.7906 21.8402 21.8402 20.7906 21.8402 19.4973V4.50301C21.8402 3.20976 20.7906 2.16016 19.4973 2.16016ZM8.25158 9.6573V18.5602H5.44016V9.6573H8.25158ZM5.44016 7.0661C5.44016 6.4101 6.00244 5.90873 6.84587 5.90873C7.6893 5.90873 8.21878 6.4101 8.25158 7.0661C8.25158 7.7221 7.72678 8.25158 6.84587 8.25158C6.00244 8.25158 5.44016 7.7221 5.44016 7.0661ZM18.5602 18.5602H15.7487C15.7487 18.5602 15.7487 14.2212 15.7487 13.8744C15.7487 12.9373 15.2802 12.0002 14.1087 11.9814H14.0712C12.9373 11.9814 12.4687 12.9467 12.4687 13.8744C12.4687 14.3008 12.4687 18.5602 12.4687 18.5602H9.6573V9.6573H12.4687V10.8568C12.4687 10.8568 13.3731 9.6573 15.1911 9.6573C17.0514 9.6573 18.5602 10.9365 18.5602 13.5277V18.5602Z" fill="#1163C7"/>
</svg>
