<svg width="24" height="24" viewBox="0 0 24 24" fill="none" xmlns="http://www.w3.org/2000/svg">
<path d="M5.19992 1.91992C3.38842 1.91992 1.91992 3.38842 1.91992 5.19992V18.3199C1.91992 20.1314 3.38842 21.5999 5.19992 21.5999H18.3199C20.1314 21.5999 21.5999 20.1314 21.5999 18.3199V5.19992C21.5999 3.38842 20.1314 1.91992 18.3199 1.91992H5.19992ZM6.17733 6.13706H9.89662L12.5378 9.89021L15.7428 6.13706H16.9142L13.0668 10.6416L17.8111 17.3828H14.0927L11.0278 13.0284L7.30849 17.3828H6.13706L10.4988 12.277L6.17733 6.13706ZM7.97108 7.07421L14.5814 16.4456H16.0173L9.407 7.07421H7.97108Z" fill="#1163C7"/>
</svg>
