<svg width="37" height="47" viewBox="0 0 37 47" fill="none" xmlns="http://www.w3.org/2000/svg">
<path d="M35.7344 5.57916L30.6407 0.485531C30.3231 0.167906 29.9179 0 29.4687 0H1.65722C0.743437 0 0 0.743438 0 1.65722V44.8428C0 45.7566 0.743437 46.5001 1.65722 46.5001H34.5625C35.4763 46.5001 36.2197 45.7566 36.2197 44.8428V6.75103C36.2197 6.30206 36.0519 5.89688 35.7344 5.57916ZM30.5945 2.56069L33.6592 5.62528H30.5945V2.56069ZM34.5625 45H1.65722C1.572 45 1.5 44.9279 1.5 44.8427V1.65722C1.5 1.572 1.572 1.5 1.65722 1.5H29.0946V5.92163C29.0946 6.58528 29.6345 7.12528 30.2982 7.12528H34.7198V44.8427C34.7197 44.9279 34.6478 45 34.5625 45ZM10.6096 17.2788C14.3926 17.2788 17.4703 14.2011 17.4703 10.4181C17.4703 6.63497 14.3926 3.55725 10.6096 3.55725C6.82659 3.55725 3.74888 6.63497 3.74888 10.4181C3.74888 14.2011 6.82659 17.2788 10.6096 17.2788ZM10.6096 5.05725C13.5655 5.05725 15.9703 7.46203 15.9703 10.4181C15.9703 13.3739 13.5655 15.7788 10.6096 15.7788C7.65366 15.7788 5.24888 13.374 5.24888 10.4181C5.24888 7.46212 7.65366 5.05725 10.6096 5.05725ZM11.7196 12.2971C11.7797 12.2276 11.838 12.1308 11.8147 11.9389C11.793 11.7601 11.7421 11.3412 10.4936 11.1362C8.48784 10.807 8.13553 9.66722 8.10394 9.01706C8.05256 7.95816 8.75344 7.06763 9.85959 6.76725V6.55116C9.85959 6.13697 10.1954 5.80116 10.6096 5.80116C11.0238 5.80116 11.3596 6.13697 11.3596 6.55116V6.76041C12.0736 6.9465 12.7426 7.41984 13.1001 8.27137C13.2604 8.65322 13.0808 9.09291 12.6989 9.25322C12.3169 9.41372 11.8774 9.234 11.7171 8.85206C11.4232 8.15241 10.6959 8.11284 10.3122 8.20003C10.1391 8.23931 9.57619 8.409 9.60216 8.94431C9.60919 9.08916 9.62784 9.47391 10.7366 9.65588C12.3019 9.91303 13.1656 10.6203 13.3037 11.758C13.3733 12.332 13.2179 12.8576 12.8541 13.2784C12.5075 13.6791 11.9733 13.9664 11.3596 14.0954V14.2849C11.3596 14.6991 11.0238 15.0349 10.6096 15.0349C10.1954 15.0349 9.85959 14.6991 9.85959 14.2849V14.0825C8.89106 13.8492 8.15316 13.1724 7.9215 12.2433C7.82128 11.8414 8.06588 11.4343 8.46778 11.3341C8.86978 11.2339 9.27666 11.4786 9.37687 11.8804C9.52716 12.4831 10.1699 12.6837 10.6716 12.6709C11.1143 12.6603 11.5355 12.51 11.7196 12.2971ZM16.2928 28.4771H13.0765C12.6623 28.4771 12.3265 28.8129 12.3265 29.2271V40.8235C12.3265 41.2377 12.6623 41.5735 13.0765 41.5735H16.2928C16.707 41.5735 17.0428 41.2377 17.0428 40.8235V29.2271C17.0428 28.8129 16.7071 28.4771 16.2928 28.4771ZM15.5428 40.0735H13.8265V29.9771H15.5428V40.0735ZM23.1431 30.6706H19.9268C19.5127 30.6706 19.1768 31.0064 19.1768 31.4206V40.8235C19.1768 41.2377 19.5127 41.5735 19.9268 41.5735H23.1431C23.5573 41.5735 23.8931 41.2377 23.8931 40.8235V31.4206C23.8931 31.0064 23.5573 30.6706 23.1431 30.6706ZM22.3931 40.0735H20.6768V32.1706H22.3931V40.0735ZM29.9934 24.2583H26.7772C26.363 24.2583 26.0272 24.5941 26.0272 25.0083V40.8234C26.0272 41.2376 26.363 41.5734 26.7772 41.5734H29.9934C30.4076 41.5734 30.7434 41.2376 30.7434 40.8234V25.0083C30.7434 24.5941 30.4077 24.2583 29.9934 24.2583ZM29.2434 40.0734H27.5272V25.7583H29.2434V40.0734ZM9.4425 33.9034H6.22631C5.81213 33.9034 5.47631 34.2392 5.47631 34.6534V40.8234C5.47631 41.2376 5.81213 41.5734 6.22631 41.5734H9.4425C9.85669 41.5734 10.1925 41.2376 10.1925 40.8234V34.6534C10.1925 34.2392 9.85678 33.9034 9.4425 33.9034ZM8.6925 40.0734H6.97631V35.4034H8.6925V40.0734ZM26.5164 22.8848L26.572 22.6039L22.0399 26.727C21.8223 26.9247 21.5091 26.9773 21.239 26.8612L14.7902 24.0882L8.28806 29.0253C8.1525 29.1283 7.99312 29.178 7.83506 29.178C7.60856 29.178 7.38469 29.0758 7.23722 28.8816C6.98672 28.5517 7.05113 28.0812 7.38103 27.8307L14.2313 22.6293C14.4465 22.4658 14.733 22.4309 14.9812 22.5375L21.3878 25.2924L25.802 21.2767L25.192 21.2789C25.1911 21.2789 25.1902 21.2789 25.1892 21.2789C24.7762 21.2789 24.4408 20.945 24.4392 20.5316C24.4377 20.1174 24.7723 19.7804 25.1865 19.7789L27.7459 19.7695H27.7486C27.9725 19.7695 28.1847 19.8695 28.3272 20.0423C28.4703 20.2159 28.528 20.4443 28.4843 20.665L27.988 23.1758C27.9174 23.5331 27.6039 23.7804 27.2531 23.7805C27.2048 23.7805 27.1559 23.7758 27.1069 23.7661C26.7004 23.6858 26.4361 23.2913 26.5164 22.8848ZM32.1263 9.41091C32.1263 9.82509 31.7905 10.1609 31.3763 10.1609H25.2652C24.851 10.1609 24.5152 9.82509 24.5152 9.41091C24.5152 8.99672 24.851 8.66091 25.2652 8.66091H31.3763C31.7906 8.66091 32.1263 8.99672 32.1263 9.41091ZM32.1263 11.509C32.1263 11.9232 31.7905 12.259 31.3763 12.259H25.2652C24.851 12.259 24.5152 11.9232 24.5152 11.509C24.5152 11.0948 24.851 10.759 25.2652 10.759H31.3763C31.7906 10.759 32.1263 11.0948 32.1263 11.509ZM20.3818 12.6785H22.1512C22.8866 12.6785 23.485 12.0801 23.485 11.3446V9.57525C23.485 8.83978 22.8866 8.24137 22.1512 8.24137H20.3818C19.6463 8.24137 19.0479 8.83978 19.0479 9.57525V11.3446C19.048 12.0801 19.6463 12.6785 20.3818 12.6785ZM20.548 9.74147H21.9851V11.1785H20.548V9.74147ZM32.1263 16.829C32.1263 17.2432 31.7905 17.579 31.3763 17.579H25.2652C24.851 17.579 24.5152 17.2432 24.5152 16.829C24.5152 16.4148 24.851 16.079 25.2652 16.079H31.3763C31.7906 16.079 32.1263 16.4148 32.1263 16.829ZM32.1263 14.7308C32.1263 15.1449 31.7905 15.4808 31.3763 15.4808H25.2652C24.851 15.4808 24.5152 15.1449 24.5152 14.7308C24.5152 14.3166 24.851 13.9808 25.2652 13.9808H31.3763C31.7906 13.9808 32.1263 14.3166 32.1263 14.7308ZM20.3818 17.9983H22.1512C22.8866 17.9983 23.485 17.3999 23.485 16.6644V14.8951C23.485 14.1596 22.8866 13.5612 22.1512 13.5612H20.3818C19.6463 13.5612 19.0479 14.1596 19.0479 14.8951V16.6644C19.048 17.4 19.6463 17.9983 20.3818 17.9983ZM20.548 15.0613H21.9851V16.4983H20.548V15.0613Z" fill="#1163C7"/>
</svg>
